# xmcd CD database file
#
# Track frame offsets:
#	150
#	14348
#	28636
#	40260
#	53937
#	70353
#	82520
#	96105
#	107677
#	121262
#	137611
#	149668
#	163523
#	177983
#	190446
#	202791
#	219024
#	231530
#	247822
#	260810
#
# Disc length: 3605 seconds
#
# Revision: 0
# Processed by: cddbd v1.5.2PL0 Copyright (c) Steve Scherf et al.
# Submitted via: CDex 1.70beta2
#
DISCID=150e1314
DTITLE=Merle Haggard - Autograph Collection [CD1]
DYEAR=2006
DGENRE=Country
TTITLE0=Always Wanting You
TTITLE1=Branded Man
TTITLE2=Carolyn
TTITLE3=Cherokee Maiden
TTITLE4=Daddy Frank The Guitar Man
TTITLE5=Everybody's Had The Blues
TTITLE6=Farmer's Daughter
TTITLE7=From Graceland To The Promised Land
TTITLE8=Holding Things Together
TTITLE9=Mama's Hungry Eyes
TTITLE10=I Take A Lot Of Pride In What I Am
TTITLE11=I Threw Away The Rose
TTITLE12=I'm A Lonesome Fugitive
TTITLE13=I'm Always On A Mountain When I Fall
TTITLE14=If We Make It Through December
TTITLE15=It's All In The Movies
TTITLE16=It's Been A Great Afternoon
TTITLE17=It's Not Love (But It's Not Bad)
TTITLE18=Kentucky Gambler
TTITLE19=Mama Tried
EXTD=YEAR: 2006
EXTT0=
EXTT1=
EXTT2=
EXTT3=
EXTT4=
EXTT5=
EXTT6=
EXTT7=
EXTT8=
EXTT9=
EXTT10=
EXTT11=
EXTT12=
EXTT13=
EXTT14=
EXTT15=
EXTT16=
EXTT17=
EXTT18=
EXTT19=
PLAYORDER=
